<svg width="96" height="96" xmlns="http://www.w3.org/2000/svg" xmlns:xlink="http://www.w3.org/1999/xlink" xml:space="preserve" overflow="hidden"><g transform="translate(-595 -431)"><path d="M603 451 603 507 683 507 683 451 603 451ZM644.4 485.9C643.6 486.7 642.4 486.7 641.6 485.9L612 457 674.1 457 644.4 485.9ZM628.5 478.7 609 498.3 609 459.6 628.5 478.7ZM631.4 481.5 638.9 488.8C640.1 489.9 641.6 490.5 643.1 490.5 644.6 490.5 646.1 489.9 647.3 488.8L654.8 481.5 674.2 501 611.9 501 631.4 481.5ZM657.5 478.7 677 459.7 677 498.2 657.5 478.7Z"/></g></svg>