<svg width="96" height="96" xmlns="http://www.w3.org/2000/svg" xmlns:xlink="http://www.w3.org/1999/xlink" xml:space="preserve" overflow="hidden"><g transform="translate(-353 -376)"><path d="M417.5 427.5 424 434 430.5 427.5 437 434 445 424 437 414 396.5 414C392.9 407.4 386 403 378 403 366.4 403 357 412.4 357 424 357 435.6 366.4 445 378 445 386 445 392.9 440.6 396.5 434L403 434 407 430 411 434 417.5 427.5ZM369 430C365.7 430 363 427.3 363 424 363 420.7 365.7 418 369 418 372.3 418 375 420.7 375 424 375 427.3 372.3 430 369 430Z"/></g></svg>