<svg width="510" height="267" xmlns="http://www.w3.org/2000/svg" xmlns:xlink="http://www.w3.org/1999/xlink" xml:space="preserve" overflow="hidden"><g transform="translate(-306 -136)"><path d="M381.094 225C381.094 234.216 373.622 241.688 364.406 241.688 355.19 241.688 347.719 234.216 347.719 225 347.719 215.784 355.19 208.312 364.406 208.312 373.622 208.312 381.094 215.784 381.094 225Z" stroke="#FFFFFF" stroke-width="1.33333" fill="#FFFFFF"/><path d="M381.094 269.5C381.094 278.716 373.622 286.188 364.406 286.188 355.19 286.188 347.719 278.716 347.719 269.5 347.719 260.284 355.19 252.812 364.406 252.812 373.622 252.812 381.094 260.284 381.094 269.5Z" stroke="#FFFFFF" stroke-width="1.33333" fill="#FFFFFF"/><path d="M381.094 314C381.094 323.216 373.622 330.688 364.406 330.688 355.19 330.688 347.719 323.216 347.719 314 347.719 304.784 355.19 297.312 364.406 297.312 373.622 297.312 381.094 304.784 381.094 314Z" stroke="#FFFFFF" stroke-width="1.33333" fill="#FFFFFF"/><path d="M414.469 269.5C414.469 272.572 411.978 275.062 408.906 275.062 405.834 275.062 403.344 272.572 403.344 269.5 403.344 266.428 405.834 263.938 408.906 263.938 411.978 263.938 414.469 266.428 414.469 269.5Z" stroke="#FFFFFF" stroke-width="1.33333" fill="#FFFFFF"/><path d="M414.469 314C414.469 317.072 411.978 319.562 408.906 319.562 405.834 319.562 403.344 317.072 403.344 314 403.344 310.928 405.834 308.438 408.906 308.438 411.978 308.438 414.469 310.928 414.469 314Z" stroke="#FFFFFF" stroke-width="1.33333" fill="#FFFFFF"/><path d="M425.594 225C425.594 234.216 418.122 241.688 408.906 241.688 399.69 241.688 392.219 234.216 392.219 225 392.219 215.784 399.69 208.312 408.906 208.312 418.122 208.312 425.594 215.784 425.594 225Z" stroke="#FFFFFF" stroke-width="1.33333" fill="#FFFFFF"/><path d="M475.656 225C475.656 228.072 473.166 230.562 470.094 230.562 467.022 230.562 464.531 228.072 464.531 225 464.531 221.928 467.022 219.438 470.094 219.438 473.166 219.438 475.656 221.928 475.656 225Z" stroke="#FFFFFF" stroke-width="1.33333" fill="#FFFFFF"/><path d="M486.781 269.5C486.781 278.716 479.31 286.188 470.094 286.188 460.878 286.188 453.406 278.716 453.406 269.5 453.406 260.284 460.878 252.812 470.094 252.812 479.31 252.812 486.781 260.284 486.781 269.5Z" stroke="#FFFFFF" stroke-width="1.33333" fill="#FFFFFF"/><path d="M486.781 314C486.781 323.216 479.31 330.688 470.094 330.688 460.878 330.688 453.406 323.216 453.406 314 453.406 304.784 460.878 297.312 470.094 297.312 479.31 297.312 486.781 304.784 486.781 314Z" stroke="#FFFFFF" stroke-width="1.33333" fill="#FFFFFF"/><path d="M520.156 269.5C520.156 272.572 517.666 275.062 514.594 275.062 511.522 275.062 509.031 272.572 509.031 269.5 509.031 266.428 511.522 263.938 514.594 263.938 517.666 263.938 520.156 266.428 520.156 269.5Z" stroke="#FFFFFF" stroke-width="1.33333" fill="#FFFFFF"/><path d="M520.156 314C520.156 317.072 517.666 319.562 514.594 319.562 511.522 319.562 509.031 317.072 509.031 314 509.031 310.928 511.522 308.438 514.594 308.438 517.666 308.438 520.156 310.928 520.156 314Z" stroke="#FFFFFF" stroke-width="1.33333" fill="#FFFFFF"/><path d="M531.281 225C531.281 234.216 523.81 241.688 514.594 241.688 505.378 241.688 497.906 234.216 497.906 225 497.906 215.784 505.378 208.312 514.594 208.312 523.81 208.312 531.281 215.784 531.281 225Z" stroke="#FFFFFF" stroke-width="1.33333" fill="#FFFFFF"/><text fill="#FFFFFF" font-family="DengXian Light,DengXian Light_MSFontService,sans-serif" font-weight="700" font-size="64" transform="translate(541.795 268)">DIGITAL </text><text fill="#FFFFFF" font-family="DengXian Light,DengXian Light_MSFontService,sans-serif" font-weight="700" font-size="27" transform="translate(541.795 310)">SOLUTIONS</text></g></svg>