<svg width="510" height="267" xmlns="http://www.w3.org/2000/svg" xmlns:xlink="http://www.w3.org/1999/xlink" xml:space="preserve" overflow="hidden"><g transform="translate(-624 -148)"><path d="M699.094 237C699.094 246.216 691.622 253.688 682.406 253.688 673.19 253.688 665.719 246.216 665.719 237 665.719 227.784 673.19 220.312 682.406 220.312 691.622 220.312 699.094 227.784 699.094 237Z" fill="#4E95D9"/><path d="M699.094 281.5C699.094 290.716 691.622 298.188 682.406 298.188 673.19 298.188 665.719 290.716 665.719 281.5 665.719 272.284 673.19 264.812 682.406 264.812 691.622 264.812 699.094 272.284 699.094 281.5Z" fill="#4E95D9"/><path d="M699.094 326C699.094 335.216 691.622 342.688 682.406 342.688 673.19 342.688 665.719 335.216 665.719 326 665.719 316.784 673.19 309.312 682.406 309.312 691.622 309.312 699.094 316.784 699.094 326Z" fill="#4E95D9"/><path d="M732.469 281.5C732.469 284.572 729.978 287.062 726.906 287.062 723.834 287.062 721.344 284.572 721.344 281.5 721.344 278.428 723.834 275.938 726.906 275.938 729.978 275.938 732.469 278.428 732.469 281.5Z" fill="#4E95D9"/><path d="M732.469 326C732.469 329.072 729.978 331.562 726.906 331.562 723.834 331.562 721.344 329.072 721.344 326 721.344 322.928 723.834 320.438 726.906 320.438 729.978 320.438 732.469 322.928 732.469 326Z" fill="#4E95D9"/><path d="M743.594 237C743.594 246.216 736.122 253.688 726.906 253.688 717.69 253.688 710.219 246.216 710.219 237 710.219 227.784 717.69 220.312 726.906 220.312 736.122 220.312 743.594 227.784 743.594 237Z" fill="#4E95D9"/><path d="M793.656 237C793.656 240.072 791.166 242.562 788.094 242.562 785.022 242.562 782.531 240.072 782.531 237 782.531 233.928 785.022 231.438 788.094 231.438 791.166 231.438 793.656 233.928 793.656 237Z" fill="#4E95D9"/><path d="M804.781 281.5C804.781 290.716 797.31 298.188 788.094 298.188 778.878 298.188 771.406 290.716 771.406 281.5 771.406 272.284 778.878 264.812 788.094 264.812 797.31 264.812 804.781 272.284 804.781 281.5Z" fill="#4E95D9"/><path d="M804.781 326C804.781 335.216 797.31 342.688 788.094 342.688 778.878 342.688 771.406 335.216 771.406 326 771.406 316.784 778.878 309.312 788.094 309.312 797.31 309.312 804.781 316.784 804.781 326Z" fill="#4E95D9"/><path d="M838.156 281.5C838.156 284.572 835.666 287.062 832.594 287.062 829.522 287.062 827.031 284.572 827.031 281.5 827.031 278.428 829.522 275.938 832.594 275.938 835.666 275.938 838.156 278.428 838.156 281.5Z" fill="#4E95D9"/><path d="M838.156 326C838.156 329.072 835.666 331.562 832.594 331.562 829.522 331.562 827.031 329.072 827.031 326 827.031 322.928 829.522 320.438 832.594 320.438 835.666 320.438 838.156 322.928 838.156 326Z" fill="#4E95D9"/><path d="M849.281 237C849.281 246.216 841.81 253.688 832.594 253.688 823.378 253.688 815.906 246.216 815.906 237 815.906 227.784 823.378 220.312 832.594 220.312 841.81 220.312 849.281 227.784 849.281 237Z" fill="#4E95D9"/><text font-family="DengXian Light,DengXian Light_MSFontService,sans-serif" font-weight="700" font-size="64" transform="translate(859.795 280)">DIGITAL </text><text font-family="DengXian Light,DengXian Light_MSFontService,sans-serif" font-weight="700" font-size="27" transform="translate(859.795 322)">SOLUTIONS</text></g></svg>