<svg width="563" height="609" xmlns="http://www.w3.org/2000/svg" xmlns:xlink="http://www.w3.org/1999/xlink" xml:space="preserve" overflow="hidden"><g transform="translate(-336 -43)"><path d="M135.302 160.358C135.302 176.964 121.841 190.426 105.235 190.426 88.6293 190.426 75.1679 176.964 75.1679 160.358 75.1679 143.752 88.6293 130.291 105.235 130.291 121.841 130.291 135.302 143.752 135.302 160.358Z" fill="#4E95D9" transform="matrix(1.00205 0 0 1 348.591 43)"/><path d="M135.302 240.537C135.302 257.142 121.841 270.605 105.235 270.605 88.6293 270.605 75.1679 257.142 75.1679 240.537 75.1679 223.932 88.6293 210.469 105.235 210.469 121.841 210.469 135.302 223.932 135.302 240.537Z" fill="#4E95D9" transform="matrix(1.00205 0 0 1 348.591 43)"/><path d="M135.302 320.716C135.302 337.321 121.841 350.784 105.235 350.784 88.6293 350.784 75.1679 337.321 75.1679 320.716 75.1679 304.111 88.6293 290.648 105.235 290.648 121.841 290.648 135.302 304.111 135.302 320.716Z" fill="#4E95D9" transform="matrix(1.00205 0 0 1 348.591 43)"/><path d="M195.437 240.537C195.437 246.072 190.949 250.558 185.413 250.558 179.879 250.558 175.392 246.072 175.392 240.537 175.392 235.002 179.879 230.516 185.413 230.516 190.949 230.516 195.437 235.002 195.437 240.537Z" fill="#4E95D9" transform="matrix(1.00205 0 0 1 348.591 43)"/><path d="M195.437 320.716C195.437 326.251 190.949 330.737 185.413 330.737 179.879 330.737 175.392 326.251 175.392 320.716 175.392 315.181 179.879 310.694 185.413 310.694 190.949 310.694 195.437 315.181 195.437 320.716Z" fill="#4E95D9" transform="matrix(1.00205 0 0 1 348.591 43)"/><path d="M215.481 160.358C215.481 176.964 202.02 190.426 185.413 190.426 168.808 190.426 155.347 176.964 155.347 160.358 155.347 143.752 168.808 130.291 185.413 130.291 202.02 130.291 215.481 143.752 215.481 160.358Z" fill="#4E95D9" transform="matrix(1.00205 0 0 1 348.591 43)"/><path d="M305.682 160.358C305.682 165.893 301.196 170.38 295.66 170.38 290.125 170.38 285.637 165.893 285.637 160.358 285.637 154.823 290.125 150.336 295.66 150.336 301.196 150.336 305.682 154.823 305.682 160.358Z" fill="#4E95D9" transform="matrix(1.00205 0 0 1 348.591 43)"/><path d="M325.727 240.537C325.727 257.142 312.266 270.605 295.66 270.605 279.055 270.605 265.592 257.142 265.592 240.537 265.592 223.932 279.055 210.469 295.66 210.469 312.266 210.469 325.727 223.932 325.727 240.537Z" fill="#4E95D9" transform="matrix(1.00205 0 0 1 348.591 43)"/><path d="M325.727 320.716C325.727 337.321 312.266 350.784 295.66 350.784 279.055 350.784 265.592 337.321 265.592 320.716 265.592 304.111 279.055 290.648 295.66 290.648 312.266 290.648 325.727 304.111 325.727 320.716Z" fill="#4E95D9" transform="matrix(1.00205 0 0 1 348.591 43)"/><path d="M385.861 240.537C385.861 246.072 381.375 250.558 375.839 250.558 370.304 250.558 365.816 246.072 365.816 240.537 365.816 235.002 370.304 230.516 375.839 230.516 381.375 230.516 385.861 235.002 385.861 240.537Z" fill="#4E95D9" transform="matrix(1.00205 0 0 1 348.591 43)"/><path d="M385.861 320.716C385.861 326.251 381.375 330.737 375.839 330.737 370.304 330.737 365.816 326.251 365.816 320.716 365.816 315.181 370.304 310.694 375.839 310.694 381.375 310.694 385.861 315.181 385.861 320.716Z" fill="#4E95D9" transform="matrix(1.00205 0 0 1 348.591 43)"/><path d="M405.906 160.358C405.906 176.964 392.445 190.426 375.839 190.426 359.234 190.426 345.771 176.964 345.771 160.358 345.771 143.752 359.234 130.291 375.839 130.291 392.445 130.291 405.906 143.752 405.906 160.358Z" fill="#4E95D9" transform="matrix(1.00205 0 0 1 348.591 43)"/><text font-family="DengXian Light,DengXian Light_MSFontService,sans-serif" font-weight="700" font-size="64" transform="matrix(1.79872 0 0 1.80178 406.537 535)">DIGITAL </text><text font-family="DengXian Light,DengXian Light_MSFontService,sans-serif" font-weight="700" font-size="27" transform="matrix(1.79872 0 0 1.80178 480.284 611)">SOLUTIONS</text></g></svg>